# xmcd CD database file
#
# Track frame offsets:
#	150
#	41377
#	97750
#	107802
#	130112
#	201688
#	242677
#	249272
#
# Disc length: 3372 seconds
#
# Revision: 0
# Processed by: cddbd v1.5.1PL0 Copyright (c) Steve Scherf et al.
# Submitted via: CDex 1.51
#
DISCID=630d2a08
DTITLE=中川　善教 - 魚山芥集
DYEAR=2004
DGENRE=Vocal
TTITLE0=梵音
TTITLE1=三条錫杖
TTITLE2=仏名
TTITLE3=九条錫杖（第四条まで）
TTITLE4=九条錫杖（第五条より附仏名）
TTITLE5=對揚
TTITLE6=大般若
TTITLE7=陀羅尼
EXTD=YEAR: 2004
EXTT0=
EXTT1=
EXTT2=
EXTT3=
EXTT4=
EXTT5=
EXTT6=
EXTT7=
PLAYORDER=
